<svg width="24" height="20" viewBox="0 0 24 20" fill="none" xmlns="http://www.w3.org/2000/svg">
<path d="M9.73823 17.7149C13.889 17.7149 17.2538 14.2027 17.2538 9.87013C17.2538 5.5376 13.889 2.02539 9.73823 2.02539C5.58749 2.02539 2.22266 5.5376 2.22266 9.87013C2.22266 14.2027 5.58749 17.7149 9.73823 17.7149Z" fill="#473DED" stroke="url(#paint0_linear_782_184)" strokeWidth="3" stroke-miterlimit="10"/>
<path d="M17.8209 13.9423L16.9953 15.2506C16.8264 15.5183 16.793 15.8065 16.9207 15.8943L21.4665 19.0195C21.5942 19.1073 21.8347 18.9614 22.0037 18.6937L22.8292 17.3854C22.9981 17.1177 23.0315 16.8294 22.9038 16.7416L18.358 13.6165C18.2303 13.5287 17.9898 13.6746 17.8209 13.9423Z" fill="url(#paint1_linear_782_184)"/>
<path d="M14.4398 12.2833C14.1393 11.2258 13.5193 10.2981 12.6725 9.6383C11.8256 8.97852 10.7972 8.62207 9.74043 8.62207C8.68368 8.62207 7.65523 8.97852 6.80837 9.6383C5.96151 10.2981 5.34159 11.2258 5.04102 12.2833C5.41148 13.0351 5.94137 13.6888 6.59037 14.1946C6.52972 13.7428 6.55886 13.2829 6.67595 12.8435C6.79305 12.404 6.99561 11.9945 7.27099 11.6403C7.54637 11.2861 7.88869 10.995 8.2766 10.7849C8.66451 10.5749 9.0897 10.4505 9.52569 10.4195C9.96167 10.3885 10.3991 10.4516 10.8107 10.6048C11.2223 10.758 11.5993 10.998 11.9181 11.3099C12.237 11.6219 12.4909 11.999 12.6639 12.4178C12.837 12.8366 12.9256 13.2882 12.9242 13.7443C12.9234 13.895 12.9122 14.0455 12.8905 14.1946C13.5403 13.6896 14.0703 13.0358 14.4398 12.2833Z" fill="white"/>
<path d="M9.7412 9.62605C10.7762 9.62605 11.6152 8.75028 11.6152 7.66996C11.6152 6.58964 10.7762 5.71387 9.7412 5.71387C8.70621 5.71387 7.86719 6.58964 7.86719 7.66996C7.86719 8.75028 8.70621 9.62605 9.7412 9.62605Z" fill="white"/>
<defs>
<linearGradient id="paint0_linear_782_184" x1="9.73823" y1="2.02539" x2="9.73823" y2="17.7149" gradientUnits="userSpaceOnUse">
<stop stop-color="#473DED"/>
<stop offset="1" stop-color="#918BFF"/>
</linearGradient>
<linearGradient id="paint1_linear_782_184" x1="17.4081" y1="14.5964" x2="22.5441" y2="17.8372" gradientUnits="userSpaceOnUse">
<stop stop-color="#473DED"/>
<stop offset="1" stop-color="#918BFF"/>
</linearGradient>
</defs>
</svg>
