<svg width="21" height="17" viewBox="0 0 21 17" fill="none" xmlns="http://www.w3.org/2000/svg">
<path d="M20.5562 6.92547C20.4351 7.20816 20.1928 7.3697 19.9101 7.3697H18.9812V14.9216C18.9812 15.8909 18.1735 16.6985 17.2043 16.6985C16.2351 16.6985 15.4274 15.8909 15.4274 14.9216V7.3697H14.4985C14.2158 7.3697 13.9331 7.20816 13.812 6.92547C13.6908 6.64277 13.7716 6.36008 13.9735 6.11777L16.9216 3.1697C17.0831 3.00816 17.3255 3.00816 17.487 3.1697L20.4351 6.11777C20.5966 6.36008 20.637 6.64277 20.5562 6.92547ZM12.6812 11.8524V14.8812C12.6812 15.8101 11.9139 16.5774 10.9851 16.5774H2.10045C1.1716 16.5774 0.404297 15.8101 0.404297 14.8812V11.812C0.404297 10.5197 1.25237 9.38893 2.46391 8.98508L3.51391 8.662C3.87737 8.54085 4.3216 8.662 4.6043 8.9447L6.54276 11.0043L8.36007 8.9447C8.64276 8.662 9.08699 8.54085 9.45045 8.62162L10.5812 8.98508C11.8331 9.38893 12.6812 10.5197 12.6812 11.8524ZM3.19084 3.6947C3.19084 1.837 4.68507 0.342773 6.54276 0.342773C8.40045 0.342773 9.89468 1.837 9.89468 3.6947C9.89468 5.55239 8.40045 7.04662 6.54276 7.04662C4.68507 7.04662 3.19084 5.55239 3.19084 3.6947Z" fill="url(#paint0_linear_793_638)"/>
<defs>
<linearGradient id="paint0_linear_793_638" x1="10.5005" y1="0.342773" x2="10.5005" y2="16.6985" gradientUnits="userSpaceOnUse">
<stop stop-color="#473DED"/>
<stop offset="1" stop-color="#918BFF"/>
</linearGradient>
</defs>
</svg>
