<svg width="20" height="19" viewBox="0 0 20 19" fill="none" xmlns="http://www.w3.org/2000/svg">
<path fill-rule="evenodd" clip-rule="evenodd" d="M4.18562 7.68846L4.30087 6.29018C4.58047 2.89877 7.55909 0.282227 11.1401 0.282227H11.4092C14.9147 0.282227 17.8042 2.89407 17.9785 6.2202V6.22039C18.1169 8.86026 17.0405 11.4268 15.0292 13.2528L14.4371 13.7905V17.9804C14.4371 18.3877 14.0896 18.7179 13.6609 18.7179H6.5284C6.09968 18.7179 5.75216 18.3877 5.75216 17.9804V16.2637L5.3476 16.3442C4.91236 16.4309 4.45929 16.3259 4.11493 16.0586C3.77057 15.7913 3.57196 15.3906 3.57434 14.9681L3.59038 12.2842L3.07354 12.2441C2.66562 12.2125 2.30562 11.9787 2.12642 11.6292C1.94741 11.2795 1.97592 10.866 2.20166 10.5417L4.18562 7.68846ZM11.21 2.1288C8.52859 2.1288 6.35176 4.19698 6.35176 6.74411C6.35176 9.29142 8.52859 11.3594 11.21 11.3594C13.8912 11.3594 16.068 9.29142 16.068 6.74411C16.068 4.19698 13.8912 2.1288 11.21 2.1288ZM11.5981 2.88372V4.48687C11.5981 4.69041 11.4242 4.85558 11.21 4.85558H10.252C10.1817 4.85558 10.1143 4.88211 10.0644 4.92933C10.0147 4.97654 9.98681 5.0405 9.98681 5.10729V5.10804C9.98681 5.17482 10.0147 5.23897 10.0644 5.28619C10.1143 5.33341 10.1817 5.35993 10.252 5.35993H11.21C11.4242 5.35993 11.5981 5.52491 11.5981 5.72864V7.37205H12.1678C12.444 7.37205 12.709 7.47627 12.9042 7.66175C13.0995 7.84724 13.2092 8.09894 13.2092 8.36137V8.36193C13.2092 8.62436 13.0995 8.87606 12.9042 9.06154C12.709 9.24703 12.444 9.35125 12.1678 9.35125H11.5981V10.6045C13.6692 10.4186 15.2918 8.75999 15.2918 6.74411C15.2918 4.72823 13.6692 3.06958 11.5981 2.88372ZM10.8219 2.88372C8.75077 3.06958 7.128 4.72823 7.128 6.74411C7.128 8.75999 8.75077 10.4186 10.8219 10.6045V8.98253C10.8219 8.77899 10.9955 8.61382 11.21 8.61382H12.1678C12.2381 8.61382 12.3056 8.5873 12.3553 8.54008C12.405 8.49286 12.433 8.42871 12.433 8.36193V8.36137C12.433 8.29439 12.405 8.23043 12.3553 8.18322C12.3056 8.136 12.2381 8.10947 12.1678 8.10947H11.21C10.9955 8.10947 10.8219 7.94431 10.8219 7.74076V6.09736H10.252C9.97572 6.09736 9.71097 5.99314 9.51572 5.80765C9.32028 5.62198 9.21057 5.37046 9.21057 5.10804V5.10729C9.21057 4.84505 9.32028 4.59335 9.51572 4.40786C9.71097 4.22238 9.97572 4.11816 10.252 4.11816H10.8219V2.88372Z" fill="url(#paint0_linear_793_641)"/>
<defs>
<linearGradient id="paint0_linear_793_641" x1="10.0001" y1="0.282227" x2="10.0001" y2="18.7179" gradientUnits="userSpaceOnUse">
<stop stop-color="#473DED"/>
<stop offset="1" stop-color="#918BFF"/>
</linearGradient>
</defs>
</svg>
