<svg width="76" height="74" viewBox="0 0 76 74" fill="none" xmlns="http://www.w3.org/2000/svg">
<path d="M24.4199 0.819336H51.2949C64.7324 0.819336 75.4824 11.5693 75.4824 25.0068V70.6943C75.4824 71.7693 74.9449 72.5756 73.8699 73.1131C73.6012 73.3818 73.0637 73.3818 72.7949 73.3818C72.2574 73.3818 71.4512 73.1131 70.9137 72.8443C61.5074 64.5131 49.4137 59.9443 37.0512 59.9443H24.4199C10.9824 59.9443 0.232422 49.1943 0.232422 35.7568V25.0068C0.232422 11.5693 10.9824 0.819336 24.4199 0.819336ZM46.7262 32.2631C46.9949 32.5318 47.2637 32.8006 47.5324 32.8006C47.8012 33.0693 48.3387 33.0693 48.6074 33.0693C49.4137 33.0693 49.9512 32.8006 50.4887 32.2631C51.0262 31.7256 51.2949 31.1881 51.2949 30.3818C51.2949 30.1131 51.2949 29.5756 51.0262 29.3068C50.7574 29.0381 50.7574 28.7693 50.4887 28.5006C49.6824 27.6943 48.6074 27.4256 47.5324 27.9631C47.2637 28.2318 46.9949 28.2318 46.7262 28.5006C46.4574 28.7693 46.1887 29.0381 46.1887 29.3068C45.9199 29.5756 45.9199 30.1131 45.9199 30.3818C45.9199 31.1881 46.1887 31.7256 46.7262 32.2631ZM35.9762 32.2631C36.2449 32.2631 36.2449 32.5318 36.2449 32.5318C36.5137 32.5318 36.5137 32.8006 36.7824 32.8006C37.0512 32.8006 37.0512 32.8006 37.3199 33.0693C37.5887 33.0693 37.5887 33.0693 37.8574 33.0693C38.6637 33.0693 39.2012 32.8006 39.7387 32.2631C40.2762 31.7256 40.5449 31.1881 40.5449 30.3818C40.5449 29.5756 40.2762 29.0381 39.7387 28.5006C39.4699 28.2318 39.2012 27.9631 38.9324 27.9631C37.8574 27.4256 36.7824 27.6943 35.9762 28.5006C35.4387 29.0381 35.1699 29.5756 35.1699 30.3818C35.1699 31.1881 35.4387 31.7256 35.9762 32.2631ZM24.6887 31.4568C24.9574 31.7256 24.9574 31.9943 25.2262 32.2631C25.4949 32.5318 25.7637 32.8006 26.0324 32.8006C26.3012 33.0693 26.8387 33.0693 27.1074 33.0693C27.3762 33.0693 27.9137 33.0693 28.1824 32.8006C28.4512 32.5318 28.7199 32.5318 28.9887 32.2631C29.2574 31.9943 29.5262 31.7256 29.5262 31.4568C29.5262 31.1881 29.7949 30.6506 29.7949 30.3818C29.7949 30.1131 29.7949 29.5756 29.5262 29.3068C29.2574 29.0381 29.2574 28.7693 28.9887 28.5006C28.7199 28.2318 28.4512 27.9631 28.1824 27.9631C27.6449 27.6943 26.8387 27.6943 26.0324 27.9631C25.7637 28.2318 25.4949 28.2318 25.2262 28.5006C24.9574 28.7693 24.6887 29.0381 24.6887 29.3068C24.6887 29.5756 24.4199 30.1131 24.4199 30.3818C24.4199 30.6506 24.4199 31.1881 24.6887 31.4568Z" fill="url(#paint0_linear_420_93)"/>
<defs>
<linearGradient id="paint0_linear_420_93" x1="10.0103" y1="-6.47027" x2="75.4824" y2="73.3818" gradientUnits="userSpaceOnUse">
<stop stop-color="#42B6F6"/>
<stop offset="1" stop-color="#6B62FB"/>
</linearGradient>
</defs>
</svg>
