<svg width="132" height="131" viewBox="0 0 132 131" fill="none" xmlns="http://www.w3.org/2000/svg">
<path d="M84.9393 41.1086H64.8781L42.2051 27.9934C41.2028 27.4146 40.8498 26.1157 41.4287 25.1134L44.3369 20.0875C44.9016 19.1134 46.2428 18.7605 47.2169 19.311L84.9393 41.1086ZM91.8428 46.7557V51.1464C91.8428 52.6993 90.5864 53.9699 89.0192 53.9699H38.7181C37.1651 53.9699 35.8945 52.6993 35.8945 51.1464V46.7557C35.8945 45.2028 37.1651 43.9322 38.7181 43.9322H89.0192C90.5864 43.9322 91.8428 45.2028 91.8428 46.7557ZM88.6663 56.7934L83.584 88.7134C82.9769 88.6145 82.3557 88.5722 81.7204 88.5722C74.3744 88.5722 68.4922 94.4461 68.4922 101.8C68.4922 103.509 68.8169 105.189 69.4804 106.798H50.6475C48.544 106.798 46.7934 105.302 46.4687 103.226L39.071 56.7934H88.6663Z" fill="#323A46"/>
<path d="M81.7196 103.387C82.596 103.387 83.3065 102.676 83.3065 101.8C83.3065 100.923 82.596 100.213 81.7196 100.213C80.8433 100.213 80.1328 100.923 80.1328 101.8C80.1328 102.676 80.8433 103.387 81.7196 103.387Z" fill="#323A46"/>
<path d="M81.7211 91.3955C75.9818 91.3955 71.3164 95.952 71.3164 101.8C71.3164 107.537 75.96 112.205 81.7211 112.205C87.4529 112.205 92.1258 107.532 92.1258 101.8C92.1258 96.0685 87.4529 91.3955 81.7211 91.3955ZM81.7178 106.21C79.2858 106.21 77.3075 104.232 77.3075 101.8C77.3075 99.3679 79.2859 97.3895 81.7178 97.3895C84.1498 97.3895 86.1282 99.3679 86.1282 101.8C86.1282 104.232 84.1498 106.21 81.7178 106.21Z" fill="#323A46"/>
<circle cx="65.8493" cy="65.4109" r="64.2595" stroke="#FC4343" strokeWidth="2"/>
</svg>
