<svg width="20" height="19" viewBox="0 0 20 19" fill="none" xmlns="http://www.w3.org/2000/svg">
<rect x="5.45703" y="2.76953" width="9.36282" height="13.5179" fill="white"/>
<path d="M10.1998 0.361328C5.08329 0.361328 0.978516 4.50613 0.978516 9.6084C0.978516 14.7128 5.08329 18.8555 10.1998 18.8555C15.3149 18.8555 19.4727 14.7128 19.4727 9.6084C19.4727 4.50613 15.3149 0.361328 10.1998 0.361328ZM10.2152 3.66385C10.3037 3.66247 10.3916 3.67885 10.4736 3.71207C10.5556 3.74529 10.6301 3.79463 10.6927 3.8572C10.7552 3.91977 10.8046 3.99433 10.8378 4.07635C10.871 4.15836 10.8874 4.2462 10.8861 4.33468V4.91004C12.1809 5.18217 13.1953 6.23138 13.1953 7.54948C13.1965 7.63701 13.1803 7.72385 13.1477 7.80507C13.1151 7.88629 13.0666 7.96027 13.0051 8.02261C12.9437 8.08494 12.8705 8.13444 12.7897 8.16822C12.7089 8.202 12.6223 8.21934 12.5347 8.21934C12.4472 8.21934 12.3606 8.202 12.2798 8.16822C12.1991 8.13444 12.1258 8.08494 12.0644 8.02261C12.0029 7.96027 11.9545 7.88629 11.9218 7.80507C11.8892 7.72385 11.873 7.63701 11.8742 7.54948C11.8742 6.8253 11.2122 6.19112 10.2772 6.16655C10.2445 6.16898 10.2118 6.16898 10.1791 6.16655C9.24122 6.189 8.5769 6.82398 8.5769 7.54948C8.5769 8.28766 9.26117 8.94273 10.2256 8.94273C10.3029 8.94211 10.3798 8.95515 10.4526 8.98111C10.4728 8.98808 10.4926 8.99594 10.512 9.00482C10.5164 9.00477 10.5208 9.00477 10.5252 9.00482C10.541 9.01256 10.5565 9.02099 10.5717 9.02997C10.5903 9.04097 10.6084 9.05284 10.6258 9.06561C10.6456 9.07996 10.6646 9.09544 10.6826 9.11189C12.0476 9.3325 13.1957 10.2854 13.1957 11.6533C13.1957 12.9521 12.1599 13.8752 10.8865 14.1534V14.8782C10.8877 14.9658 10.8715 15.0528 10.8389 15.134C10.8063 15.2152 10.7578 15.289 10.6963 15.3514C10.6349 15.4137 10.5617 15.4632 10.4809 15.497C10.4002 15.5308 10.3135 15.5483 10.226 15.5483C10.1384 15.5483 10.0518 15.5308 9.97101 15.497C9.89026 15.4632 9.81702 15.4137 9.75557 15.3514C9.69411 15.289 9.64566 15.2152 9.61302 15.134C9.58038 15.0528 9.56421 14.9658 9.56545 14.8782V14.156C8.29087 13.8784 7.25626 12.9503 7.25626 11.6507C7.25502 11.5632 7.27119 11.4763 7.30383 11.3951C7.33646 11.3139 7.38492 11.2399 7.44638 11.1776C7.50783 11.1152 7.58106 11.0658 7.66182 11.032C7.74257 10.9982 7.82923 10.9808 7.91676 10.9808C8.0043 10.9808 8.09096 10.9982 8.17171 11.032C8.25246 11.0658 8.3257 11.1152 8.38715 11.1776C8.44861 11.2399 8.49706 11.3139 8.5297 11.3951C8.56234 11.4763 8.57851 11.5632 8.57727 11.6507C8.57727 12.3892 9.2615 13.044 10.226 13.044C11.1904 13.044 11.8746 12.3892 11.8746 11.6507C11.8746 10.9123 11.1904 10.2599 10.226 10.2599C10.1869 10.2589 10.1481 10.2546 10.1098 10.2468C8.56597 10.19 7.25625 9.04076 7.25625 7.54287C7.25625 6.24392 8.29185 5.32069 9.56544 5.04275V4.32807C9.56408 4.24133 9.57982 4.15523 9.61177 4.07457C9.64371 3.99392 9.69122 3.9203 9.7516 3.85801C9.81198 3.79571 9.88403 3.74587 9.96365 3.71142C10.0433 3.67698 10.1289 3.65859 10.2156 3.65724L10.2152 3.66385Z" fill="#D8D8D8"/>
</svg>
