<svg width="80" height="54" viewBox="0 0 80 54" fill="none" xmlns="http://www.w3.org/2000/svg">
<path d="M64.5362 20.2812C62.2941 8.74007 52.2869 0.0339355 40.2849 0.0339355C30.7558 0.0339355 22.4962 5.53608 18.3581 13.5712C8.44985 14.6616 0.717773 23.2 0.717773 33.5836C0.717773 44.7053 9.57091 53.7134 20.5013 53.7134H63.3657C72.4661 53.7134 79.852 46.1983 79.852 36.9386C79.852 28.0815 73.0761 20.9018 64.5362 20.2812Z" fill="url(#paint0_linear_512_1763)"/>
<path d="M35.484 38.8255C41.4004 38.8255 46.1966 34.0293 46.1966 28.113C46.1966 22.1966 41.4004 17.4004 35.484 17.4004C29.5677 17.4004 24.7715 22.1966 24.7715 28.113C24.7715 34.0293 29.5677 38.8255 35.484 38.8255Z" fill="#0686D8" stroke="#414042" strokeWidth="5" stroke-miterlimit="10"/>
<path d="M46.4652 34.2202L45.2422 36.077C44.9919 36.457 45.0971 36.9679 45.4771 37.2182L59.0004 46.125C59.3804 46.3753 59.8913 46.2701 60.1416 45.8901L61.3645 44.0333C61.6148 43.6533 61.5096 43.1424 61.1296 42.8921L47.6063 33.9853C47.2263 33.735 46.7154 33.8402 46.4652 34.2202Z" fill="#414042"/>
<path d="M43.679 32.2936C43.1548 30.5269 42.0738 28.9769 40.597 27.8747C39.1203 26.7724 37.3268 26.1769 35.484 26.1769C33.6413 26.1769 31.8478 26.7724 30.371 27.8747C28.8943 28.9769 27.8132 30.5269 27.2891 32.2936C27.9351 33.5495 28.8591 34.6416 29.9909 35.4866C29.8851 34.7319 29.9359 33.9636 30.1401 33.2294C30.3443 32.4952 30.6975 31.811 31.1778 31.2193C31.658 30.6276 32.2549 30.1412 32.9314 29.7903C33.6078 29.4394 34.3493 29.2316 35.1096 29.1798C35.8698 29.128 36.6326 29.2334 37.3504 29.4893C38.0682 29.7453 38.7256 30.1463 39.2816 30.6674C39.8376 31.1885 40.2803 31.8186 40.5821 32.5183C40.884 33.218 41.0385 33.9724 41.036 34.7344C41.0347 34.9862 41.015 35.2376 40.9772 35.4866C42.1103 34.6431 43.0346 33.5507 43.679 32.2936Z" fill="white"/>
<path d="M35.4845 27.6805C37.3949 27.6805 38.9437 26.1318 38.9437 24.2213C38.9437 22.3109 37.3949 20.7622 35.4845 20.7622C33.5741 20.7622 32.0254 22.3109 32.0254 24.2213C32.0254 26.1318 33.5741 27.6805 35.4845 27.6805Z" fill="white"/>
<defs>
<linearGradient id="paint0_linear_512_1763" x1="40.2849" y1="0.0339355" x2="40.2849" y2="53.7134" gradientUnits="userSpaceOnUse">
<stop stop-color="#0785D6"/>
<stop offset="1" stop-color="#0785D6" stop-opacity="0"/>
</linearGradient>
</defs>
</svg>
