<svg width="20" height="19" viewBox="0 0 20 19" fill="none" xmlns="http://www.w3.org/2000/svg">
<rect x="5.37109" y="2.50781" width="9.36282" height="13.5179" fill="white"/>
<path d="M10.1138 0.0996094C4.99735 0.0996094 0.892578 4.24441 0.892578 9.34668C0.892578 14.4511 4.99735 18.5938 10.1138 18.5938C15.2289 18.5938 19.3867 14.4511 19.3867 9.34668C19.3867 4.24441 15.2289 0.0996094 10.1138 0.0996094ZM10.1293 3.40213C10.2178 3.40075 10.3056 3.41713 10.3876 3.45035C10.4697 3.48357 10.5442 3.53291 10.6067 3.59548C10.6693 3.65805 10.7187 3.73262 10.7519 3.81463C10.7851 3.89664 10.8015 3.98449 10.8001 4.07296V4.64832C12.095 4.92045 13.1093 5.96966 13.1093 7.28776C13.1106 7.37529 13.0944 7.46213 13.0618 7.54335C13.0291 7.62457 12.9807 7.69855 12.9192 7.76089C12.8577 7.82322 12.7845 7.87272 12.7038 7.9065C12.623 7.94029 12.5363 7.95762 12.4488 7.95762C12.3613 7.95762 12.2746 7.94029 12.1939 7.9065C12.1131 7.87272 12.0399 7.82322 11.9784 7.76089C11.917 7.69855 11.8685 7.62457 11.8359 7.54335C11.8032 7.46213 11.7871 7.37529 11.7883 7.28776C11.7883 6.56358 11.1263 5.9294 10.1912 5.90483C10.1586 5.90726 10.1258 5.90726 10.0932 5.90483C9.15528 5.92729 8.49096 6.56226 8.49096 7.28776C8.49096 8.02594 9.17523 8.68101 10.1396 8.68101C10.217 8.68039 10.2938 8.69343 10.3667 8.71939C10.3868 8.72636 10.4066 8.73422 10.426 8.7431C10.4304 8.74305 10.4348 8.74305 10.4392 8.7431C10.4551 8.75084 10.4706 8.75927 10.4857 8.76825C10.5044 8.77925 10.5224 8.79112 10.5399 8.80389C10.5597 8.81824 10.5786 8.83372 10.5967 8.85017C11.9617 9.07078 13.1097 10.0237 13.1097 11.3916C13.1097 12.6904 12.074 13.6135 10.8005 13.8917V14.6165C10.8018 14.7041 10.7856 14.7911 10.753 14.8723C10.7203 14.9535 10.6719 15.0273 10.6104 15.0897C10.5489 15.152 10.4757 15.2015 10.395 15.2353C10.3142 15.2691 10.2276 15.2865 10.14 15.2865C10.0525 15.2865 9.96582 15.2691 9.88507 15.2353C9.80432 15.2015 9.73109 15.152 9.66963 15.0897C9.60817 15.0273 9.55972 14.9535 9.52708 14.8723C9.49444 14.7911 9.47827 14.7041 9.47951 14.6165V13.8943C8.20494 13.6167 7.17032 12.6886 7.17032 11.389C7.16908 11.3015 7.18525 11.2146 7.21789 11.1334C7.25053 11.0522 7.29898 10.9782 7.36044 10.9159C7.4219 10.8535 7.49513 10.804 7.57588 10.7702C7.65663 10.7365 7.74329 10.7191 7.83083 10.7191C7.91836 10.7191 8.00502 10.7365 8.08577 10.7702C8.16653 10.804 8.23976 10.8535 8.30122 10.9159C8.36267 10.9782 8.41113 11.0522 8.44376 11.1334C8.4764 11.2146 8.49257 11.3015 8.49133 11.389C8.49133 12.1274 9.17556 12.7822 10.14 12.7822C11.1045 12.7822 11.7887 12.1274 11.7887 11.389C11.7887 10.6505 11.1045 9.99815 10.14 9.99815C10.101 9.99719 10.0621 9.99292 10.0239 9.98509C8.48004 9.92829 7.17031 8.77904 7.17031 7.28115C7.17031 5.9822 8.20591 5.05898 9.4795 4.78104V4.06635C9.47814 3.97961 9.49389 3.89351 9.52583 3.81285C9.55777 3.7322 9.60529 3.65858 9.66566 3.59629C9.72604 3.534 9.79809 3.48415 9.87771 3.4497C9.95733 3.41526 10.0429 3.39688 10.1297 3.39552L10.1293 3.40213Z" fill="#DADEE1"/>
</svg>
