<svg width="20" height="17" viewBox="0 0 20 17" fill="none" xmlns="http://www.w3.org/2000/svg">
<path d="M4.64738 6.68089H17.1744V5.34253C17.1672 4.80538 16.9478 4.29288 16.5643 3.9168C16.1807 3.54073 15.6639 3.33159 15.1267 3.33499H10.7904C10.628 3.33514 10.4702 3.28096 10.3421 3.18108L7.65868 1.09324C7.2969 0.812192 6.85205 0.659202 6.39393 0.658273H2.74691C2.20941 0.65381 1.69206 0.862607 1.30823 1.23891C0.924399 1.61521 0.705399 2.12833 0.699219 2.66581V14.4768L2.69337 8.09286C2.82731 7.68074 3.08878 7.32187 3.44001 7.06807C3.79124 6.81427 4.21405 6.67868 4.64738 6.68089V6.68089Z" fill="#D8D8D8"/>
<path d="M19.3169 8.01969H4.6485C4.50086 8.01657 4.356 8.06019 4.23462 8.14431C4.11324 8.22844 4.02155 8.34877 3.97263 8.48811L1.52344 16.3108C1.58366 16.351 1.6372 16.3911 1.70412 16.4313C1.77103 16.4714 1.82457 16.4982 1.88479 16.525C1.96684 16.5631 2.05189 16.5944 2.13908 16.6186C2.19262 16.632 2.23946 16.6521 2.29299 16.6655C2.43154 16.6964 2.57269 16.7144 2.71458 16.719H15.4825C15.9158 16.7212 16.3387 16.5856 16.6899 16.3318C17.0411 16.078 17.3026 15.7192 17.4365 15.307L19.3437 9.28444C19.4791 8.87211 19.4696 8.42592 19.3169 8.01969V8.01969Z" fill="#D8D8D8"/>
</svg>
