<svg width="19" height="19" viewBox="0 0 19 19" fill="none" xmlns="http://www.w3.org/2000/svg">
<path d="M6.6302 17.7131V14.8773C6.63019 14.156 7.24916 13.57 8.01606 13.5651H10.8252C11.5958 13.5651 12.2204 14.1526 12.2204 14.8773V17.7219C12.2203 18.3343 12.74 18.8348 13.3909 18.8492H15.2637C17.1306 18.8492 18.6441 17.4258 18.6441 15.6699V7.60299C18.6341 6.91224 18.2893 6.2636 17.7077 5.84165L11.3028 0.989156C10.1807 0.14424 8.58566 0.14424 7.46359 0.989156L1.08678 5.85046C0.502996 6.27069 0.15758 6.92042 0.150391 7.6118V15.6699C0.150391 17.4258 1.66383 18.8492 3.53075 18.8492H5.40353C6.07066 18.8492 6.61147 18.3405 6.61147 17.7131" fill="#D8D8D8"/>
</svg>
