<svg width="19" height="19" viewBox="0 0 19 19" fill="none" xmlns="http://www.w3.org/2000/svg">
<circle cx="9.24902" cy="9.6084" r="9.24707" fill="#D9D9D9"/>
<path d="M12.373 11.5446C12.373 12.2277 12.1509 12.8158 11.7067 13.3092C11.2625 13.8025 10.6855 14.1071 9.97566 14.2232V15.3951C9.97566 15.4576 9.95557 15.5089 9.91539 15.5491C9.87521 15.5893 9.82387 15.6094 9.76137 15.6094H8.85735C8.79932 15.6094 8.74909 15.5882 8.70668 15.5458C8.66427 15.5033 8.64307 15.4531 8.64307 15.3951V14.2232C8.34842 14.183 8.06383 14.1138 7.78927 14.0156C7.51472 13.9174 7.28816 13.8181 7.10958 13.7176C6.93101 13.6172 6.76583 13.51 6.61405 13.3962C6.46226 13.2824 6.35847 13.1987 6.30266 13.1451C6.24686 13.0915 6.2078 13.0513 6.18548 13.0246C6.10958 12.9308 6.10512 12.8393 6.17208 12.75L6.86182 11.846C6.89307 11.8013 6.94441 11.7746 7.01583 11.7656C7.0828 11.7567 7.13637 11.7768 7.17655 11.8259L7.18994 11.8393C7.69441 12.2813 8.23682 12.5603 8.81717 12.6763C8.98235 12.7121 9.14753 12.7299 9.31271 12.7299C9.67432 12.7299 9.9924 12.6339 10.267 12.442C10.5415 12.25 10.6788 11.9777 10.6788 11.625C10.6788 11.5 10.6453 11.3817 10.5783 11.2701C10.5114 11.1585 10.4366 11.0647 10.354 10.9888C10.2714 10.9129 10.1408 10.8292 9.96226 10.7377C9.78369 10.6462 9.63637 10.5748 9.5203 10.5234C9.40423 10.4721 9.22566 10.3996 8.98458 10.3058C8.81048 10.2344 8.6732 10.1786 8.57275 10.1384C8.47231 10.0982 8.33503 10.0391 8.16092 9.96094C7.98682 9.88281 7.84731 9.81362 7.7424 9.75335C7.63749 9.69308 7.51137 9.61384 7.36405 9.51562C7.21673 9.41741 7.09731 9.32254 7.00579 9.23103C6.91427 9.13951 6.81717 9.03013 6.7145 8.9029C6.61182 8.77567 6.53258 8.64621 6.47677 8.51451C6.42097 8.38281 6.37409 8.23438 6.33615 8.0692C6.2982 7.90402 6.27923 7.72991 6.27923 7.54688C6.27923 6.9308 6.49798 6.39063 6.93548 5.92634C7.37298 5.46205 7.94217 5.16295 8.64307 5.02902V3.82366C8.64307 3.76562 8.66427 3.7154 8.70668 3.67299C8.74909 3.63058 8.79932 3.60938 8.85735 3.60938H9.76137C9.82387 3.60938 9.87521 3.62946 9.91539 3.66964C9.95557 3.70982 9.97566 3.76116 9.97566 3.82366V5.00223C10.2301 5.02902 10.4768 5.08036 10.7156 5.15625C10.9545 5.23214 11.1486 5.30692 11.2982 5.38058C11.4478 5.45424 11.5895 5.53795 11.7234 5.6317C11.8574 5.72545 11.9444 5.79018 11.9846 5.82589C12.0248 5.86161 12.0582 5.89286 12.085 5.91964C12.1609 6 12.1721 6.08482 12.1185 6.17411L11.5761 7.15179C11.5404 7.21875 11.489 7.25446 11.4221 7.25893C11.3596 7.27232 11.2993 7.2567 11.2413 7.21205C11.2279 7.19866 11.1955 7.17188 11.1442 7.1317C11.0928 7.09152 11.0058 7.03237 10.883 6.95424C10.7603 6.87612 10.6297 6.80469 10.4913 6.73996C10.3529 6.67522 10.1866 6.61719 9.9924 6.56585C9.7982 6.51451 9.60735 6.48884 9.41985 6.48884C8.99575 6.48884 8.64976 6.58482 8.38191 6.77679C8.11405 6.96875 7.98012 7.21652 7.98012 7.52009C7.98012 7.63616 7.99909 7.7433 8.03704 7.84152C8.07499 7.93973 8.14083 8.03237 8.23458 8.11942C8.32833 8.20647 8.4165 8.28013 8.49909 8.3404C8.58168 8.40067 8.70668 8.46987 8.87409 8.54799C9.0415 8.62612 9.17655 8.68638 9.27923 8.72879C9.38191 8.77121 9.53816 8.83259 9.74798 8.91295C9.98458 9.00223 10.1654 9.07254 10.2904 9.12388C10.4154 9.17522 10.585 9.25335 10.7993 9.35826C11.0136 9.46317 11.1821 9.55804 11.3049 9.64286C11.4277 9.72768 11.5661 9.83929 11.7201 9.97768C11.8741 10.1161 11.9924 10.2578 12.075 10.4029C12.1576 10.548 12.2279 10.7188 12.2859 10.9152C12.344 11.1116 12.373 11.3214 12.373 11.5446Z" fill="white"/>
</svg>
