<svg width="20" height="18" viewBox="0 0 20 18" fill="none" xmlns="http://www.w3.org/2000/svg">
<path d="M17.4002 2.90222H14.0022V1.69922C14.0022 1.14722 13.5542 0.699219 13.0022 0.699219H7.05925C6.50725 0.699219 6.05925 1.14722 6.05925 1.69922V2.90222H2.90625C1.80125 2.90222 0.90625 3.79722 0.90625 4.90222V15.8982C0.90625 17.0032 1.80125 17.8982 2.90625 17.8982H17.4002C18.5052 17.8982 19.4002 17.0032 19.4002 15.8982V4.90222C19.4002 3.79822 18.5052 2.90222 17.4002 2.90222ZM14.9073 8.00322L9.45825 13.4502C9.37025 13.5382 9.25125 13.5862 9.12625 13.5862C9.00125 13.5862 8.88225 13.5382 8.79425 13.4502L6.15525 10.8072C5.88025 10.5322 5.88025 10.0882 6.15525 9.81422L6.48725 9.48222C6.76225 9.20722 7.20625 9.20722 7.48025 9.48222L9.13025 11.1322L13.5822 6.67822C13.8572 6.40322 14.3012 6.40322 14.5752 6.67822L14.9073 7.01022C15.1823 7.28422 15.1823 7.72822 14.9073 8.00322Z" fill="#D8D8D8"/>
</svg>
