<svg width="19" height="19" viewBox="0 0 19 19" fill="none" xmlns="http://www.w3.org/2000/svg">
<path d="M13.7479 0.25293H5.25391C2.49291 0.25293 0.253906 2.49193 0.253906 5.25293V13.7469C0.253906 16.5079 2.49291 18.7469 5.25391 18.7469H13.7479C16.5089 18.7469 18.7479 16.5079 18.7479 13.7469V5.25293C18.7479 2.49193 16.5089 0.25293 13.7479 0.25293ZM9.50091 13.0699H4.72591C4.22891 13.0699 3.82591 12.6669 3.82591 12.1699C3.82591 11.6729 4.22891 11.2699 4.72591 11.2699H9.50091C9.99791 11.2699 10.4009 11.6729 10.4009 12.1699C10.4009 12.6669 9.99791 13.0699 9.50091 13.0699ZM13.9209 10.2109H4.74791C4.25091 10.2109 3.84791 9.80793 3.84791 9.31093C3.84791 8.81393 4.25091 8.41093 4.74791 8.41093H13.9209C14.4179 8.41093 14.8209 8.81393 14.8209 9.31093C14.8209 9.80793 14.4179 10.2109 13.9209 10.2109ZM13.9439 7.28993H4.74791C4.25091 7.28993 3.84791 6.88693 3.84791 6.38993C3.84791 5.89293 4.25091 5.48993 4.74791 5.48993H13.9439C14.4409 5.48993 14.8439 5.89293 14.8439 6.38993C14.8439 6.88693 14.4409 7.28993 13.9439 7.28993Z" fill="#D8D8D8"/>
</svg>
