<svg width="19" height="19" viewBox="0 0 19 19" fill="none" xmlns="http://www.w3.org/2000/svg">
<path d="M2.72126 2.84236C2.72126 1.38906 3.89939 0.210938 5.35268 0.210938C6.80597 0.210938 7.9841 1.38906 7.9841 2.84236C7.9841 3.69067 7.58267 4.44523 6.95942 4.92644C6.94067 4.94027 6.92204 4.95426 6.90354 4.96841C6.46865 5.28619 5.93256 5.47377 5.35268 5.47377C3.89939 5.47377 2.72126 4.29565 2.72126 2.84236ZM11.6402 4.92644C11.6589 4.94027 11.6776 4.95426 11.6961 4.96842C12.1309 5.28621 12.6671 5.47377 13.2469 5.47377C14.7003 5.47377 15.8783 4.29565 15.8783 2.84236C15.8783 1.38906 14.7003 0.210938 13.2469 0.210938C11.7936 0.210938 10.6155 1.38906 10.6155 2.84236C10.6155 3.69067 11.0169 4.44523 11.6402 4.92644ZM7.02042 6.78948C7.4754 6.00295 8.32581 5.47377 9.29981 5.47377C10.2738 5.47377 11.1242 6.00295 11.5792 6.78948C11.8031 7.17652 11.9312 7.62589 11.9312 8.10519C11.9312 9.55848 10.7531 10.7366 9.29981 10.7366C7.84651 10.7366 6.66839 9.55848 6.66839 8.10519C6.66839 7.62589 6.79652 7.17652 7.02042 6.78948ZM2.06338 6.78948H5.57728C5.43182 7.20101 5.35268 7.64385 5.35268 8.10519C5.35268 9.11611 5.73272 10.0383 6.35774 10.7366H6.01051C4.58278 10.7366 3.36754 11.6463 2.91266 12.9175C2.46537 12.7356 2.05154 12.4978 1.68468 12.2034C0.693715 11.408 0.0898438 10.2315 0.0898438 8.76304C0.0898438 7.67312 0.973421 6.78948 2.06338 6.78948ZM12.5891 10.7366C14.0168 10.7366 15.2321 11.6462 15.6869 12.9175C16.1343 12.7356 16.548 12.4978 16.915 12.2034C17.9059 11.408 18.5098 10.2315 18.5098 8.76304C18.5098 7.67307 17.6261 6.78948 16.5362 6.78948H13.0223C13.1677 7.20101 13.2469 7.64385 13.2469 8.10519C13.2469 9.11611 12.8668 10.0383 12.2419 10.7366H12.5891ZM14.4141 13.2733C14.5097 13.5053 14.5626 13.7594 14.5626 14.0259C14.5626 15.4943 13.9587 16.6708 12.9679 17.4662C11.9925 18.249 10.6854 18.6309 9.29981 18.6309C7.91426 18.6309 6.6071 18.249 5.63181 17.4662C4.64084 16.6708 4.03697 15.4943 4.03697 14.0259C4.03697 13.7594 4.0898 13.5053 4.18554 13.2733C4.48139 12.5566 5.18704 12.0523 6.01051 12.0523H12.5891C13.4126 12.0523 14.1182 12.5566 14.4141 13.2733Z" fill="#D8D8D8"/>
</svg>
