<svg width="19" height="19" viewBox="0 0 19 19" fill="none" xmlns="http://www.w3.org/2000/svg">
<path fill-rule="evenodd" clip-rule="evenodd" d="M14.7873 17.1703C14.7873 17.4866 14.6617 17.7899 14.438 18.0136C14.2144 18.2372 13.911 18.3629 13.5947 18.3629H1.64347C1.48633 18.363 1.33071 18.3322 1.18551 18.2721C1.04031 18.2121 0.908383 18.124 0.797274 18.0129C0.686166 17.9018 0.59806 17.7698 0.538001 17.6246C0.477942 17.4794 0.447109 17.3238 0.447266 17.1667V15.9729C0.447266 12.8264 5.22728 11.1928 5.22728 11.1928C5.22728 11.1928 5.50094 10.7041 5.22728 9.99784C4.22229 9.25694 4.0992 8.09779 4.03228 5.21783C4.23902 2.33428 6.26335 1.63281 7.61729 1.63281C8.97123 1.63281 10.9956 2.33309 11.2023 5.21783C11.1354 8.09779 11.0123 9.25694 10.0073 9.99784C9.73365 10.7029 10.0073 11.1928 10.0073 11.1928C10.0073 11.1928 14.7873 12.8264 14.7873 15.9729V17.1703Z" fill="#D8D8D8"/>
<path d="M13.8266 9.86474C13.8266 9.86474 13.5675 9.37769 13.8266 8.67681C14.778 7.9403 14.8945 6.78801 14.9578 3.92511C14.7621 1.05746 12.8458 0.361337 11.564 0.361337C10.8117 0.361337 9.91095 0.350075 9.19712 1.12817C9.3521 1.10916 8.80929 0.945535 9.78978 1.12817C10.7703 1.3108 12.7824 2.06007 12.9781 4.92772C12.9148 7.79062 12.7982 8.94291 11.8469 9.67942C11.5878 10.3803 11.8469 10.8673 11.8469 10.8673C11.8469 10.8673 16.3719 12.4912 16.3719 15.619V16.8093C16.3719 16.8747 16.3459 16.9305 16.3369 16.9923H17.2226C17.846 16.9923 18.3517 16.4613 18.3517 15.8067V14.6164C18.3517 11.4886 13.8266 9.86474 13.8266 9.86474Z" fill="#D8D8D8"/>
</svg>
